<?xml version="1.0" encoding="utf-8"?>
<!-- Generator: Adobe Illustrator 17.0.0, SVG Export Plug-In . SVG Version: 6.00 Build 0)  -->
<!DOCTYPE svg PUBLIC "-//W3C//DTD SVG 1.1//EN" "http://www.w3.org/Graphics/SVG/1.1/DTD/svg11.dtd">
<svg version="1.1" id="图层_1" xmlns="http://www.w3.org/2000/svg" xmlns:xlink="http://www.w3.org/1999/xlink" x="0px" y="0px"
	 width="136px" height="60px" viewBox="0 0 136 60" enable-background="new 0 0 136 60" xml:space="preserve">
<rect x="74.966" y="12.467" transform="matrix(-0.707 0.7072 -0.7072 -0.707 146.9925 -27.5064)" fill="#CC1541" width="8.457" height="8.458"/>
<rect x="84.494" y="8.637" transform="matrix(-0.7072 0.707 -0.707 -0.7072 156.7144 -42.3591)" fill="#CC1541" width="5.268" height="5.267"/>
<rect x="96.73" y="5.883" transform="matrix(-0.7072 0.7071 -0.7071 -0.7072 173.3175 -56.6828)" fill="#1999E0" width="3.334" height="3.334"/>
<rect x="87.524" y="1.825" transform="matrix(-0.707 0.7072 -0.7072 -0.707 155.015 -56.9924)" fill="#EAAC1F" width="3.578" height="3.579"/>
<path fill="#282828" d="M22.599,58.553c-1.665,0.697-3.853,1.047-6.564,1.047c-4.577,0-8.248-1.361-11.012-4.087
	c-2.766-2.725-4.148-6.368-4.148-10.932c0-4.388,1.436-7.96,4.309-10.711c2.832-2.698,6.463-4.047,10.892-4.047
	c2.443,0,4.604,0.409,6.483,1.229l-0.342,4.006c-1.812-1.074-3.793-1.61-5.94-1.61c-3.275,0-5.946,1.067-8.013,3.201
	c-2.013,2.106-3.02,4.792-3.02,8.053c0,3.316,1.061,6.041,3.181,8.174c2.054,2.054,4.604,3.08,7.65,3.08
	c2.618,0,4.711-0.463,6.282-1.389L22.599,58.553z"/>
<path fill="#282828" d="M44.803,59.097h-3.745v-3.341h-0.08c-0.564,1.18-1.48,2.116-2.748,2.808
	c-1.268,0.691-2.648,1.036-4.137,1.036c-5.248,0-7.872-3.013-7.872-9.04V38.078h3.866v10.871c0,2.551,0.321,4.403,0.966,5.557
	c0.684,1.262,1.853,1.912,3.503,1.953c2.12,0.053,3.731-0.739,4.832-2.376c1.033-1.504,1.55-3.597,1.55-6.282v-9.723h3.866
	L44.803,59.097L44.803,59.097z"/>
<path fill="#282828" d="M49.851,59.097V28.6h7.785c2.445,0,4.082,0.044,4.911,0.129c1.358,0.156,2.47,0.428,3.335,0.814
	c0.865,0.386,1.629,0.926,2.294,1.619c0.664,0.694,1.165,1.484,1.502,2.37c0.335,0.887,0.504,1.83,0.504,2.831
	c0,1.745-0.511,3.22-1.533,4.428c-1.023,1.209-2.492,2.006-4.408,2.392c2.045,0.158,3.718,0.926,5.019,2.304
	c1.3,1.381,1.951,3.072,1.951,5.073c0,1.387-0.276,2.627-0.826,3.72c-0.549,1.094-1.339,2.034-2.369,2.821
	c-0.672,0.514-1.516,0.93-2.531,1.243c-1.615,0.502-3.289,0.751-5.018,0.751H49.851V59.097z M55.856,40.953h2.938
	c1.916,0,3.267-0.357,4.053-1.072c0.786-0.715,1.18-1.645,1.18-2.788c0-0.871-0.222-1.604-0.665-2.198
	c-0.443-0.591-0.973-0.989-1.587-1.189c-0.614-0.2-1.509-0.308-2.681-0.322l-3.238-0.064V40.953z M55.856,54.38h3.002
	c2.173,0,3.742-0.416,4.707-1.246c0.966-0.828,1.448-1.908,1.448-3.237c0-1.558-0.496-2.685-1.49-3.378
	c-0.994-0.693-2.571-1.04-4.729-1.04h-2.938V54.38z"/>
<path fill="#282828" d="M76.113,59.097V28.6h6.198v30.497H76.113z"/>
<path fill="#5A5A5A" d="M94.918,58.929c-0.714,0.331-1.645,0.497-2.789,0.497c-1.784,0-3.26-0.623-4.429-1.868
	c-1.137-1.206-1.705-2.687-1.705-4.438c0-1.845,0.566-3.357,1.7-4.537c1.133-1.18,2.611-1.77,4.434-1.77
	c1.022,0,1.92,0.158,2.697,0.473L94.63,49.13c-0.83-0.346-1.634-0.519-2.41-0.519c-1.175,0-2.129,0.466-2.859,1.395
	c-0.669,0.853-1.003,1.89-1.003,3.113c0,1.206,0.311,2.225,0.934,3.055c0.723,0.968,1.748,1.453,3.078,1.453
	c0.892,0,1.688-0.226,2.387-0.679L94.918,58.929z"/>
<path fill="#5A5A5A" d="M108.003,59.137h-2.145v-1.915h-0.046c-0.322,0.677-0.847,1.213-1.573,1.609s-1.516,0.594-2.368,0.594
	c-3.007,0-4.509-1.726-4.509-5.177V47.1h2.214v6.226c0,1.46,0.184,2.521,0.553,3.181c0.392,0.724,1.061,1.095,2.006,1.119
	c1.215,0.031,2.137-0.423,2.767-1.359c0.593-0.862,0.888-2.061,0.888-3.598V47.1h2.215v12.037
	C108.005,59.137,108.003,59.137,108.003,59.137z"/>
<path fill="#5A5A5A" d="M122.335,52.9c0,1.821-0.407,3.321-1.222,4.496c-0.93,1.353-2.244,2.03-3.942,2.03
	c-1.875,0-3.248-0.662-4.117-1.983h-0.045v1.695h-2.122V41.429h2.213v7.321h0.046c0.799-1.291,2.133-1.938,4.001-1.938
	c1.659,0,2.963,0.611,3.908,1.834C121.91,49.76,122.335,51.177,122.335,52.9z M119.972,53.073c0-1.231-0.249-2.249-0.749-3.055
	c-0.585-0.938-1.433-1.406-2.548-1.406c-1.138,0-2.034,0.473-2.686,1.418c-0.593,0.845-0.889,1.883-0.889,3.113
	c0,1.152,0.281,2.152,0.843,2.997c0.653,0.993,1.556,1.488,2.709,1.488c1.083,0,1.937-0.523,2.559-1.567
	C119.719,55.19,119.972,54.195,119.972,53.073z"/>
<path fill="#5A5A5A" d="M135.061,53.614h-8.589c0,1.16,0.399,2.126,1.198,2.894c0.76,0.746,1.683,1.119,2.768,1.119
	c0.669,0,1.402-0.146,2.201-0.438c0.684-0.246,1.188-0.502,1.51-0.773v2.225c-1.444,0.522-2.713,0.784-3.804,0.784
	c-2.076,0-3.648-0.6-4.716-1.799c-1.014-1.122-1.522-2.697-1.522-4.727c0-1.791,0.518-3.253,1.556-4.387
	c1.038-1.133,2.402-1.701,4.094-1.701C133.292,46.812,135.061,49.079,135.061,53.614z M132.709,51.954
	c0-0.953-0.261-1.74-0.784-2.364c-0.554-0.652-1.291-0.979-2.214-0.979c-1,0-1.791,0.36-2.375,1.084
	c-0.477,0.599-0.766,1.353-0.864,2.259H132.709z"/>
<polygon fill="#1999E0" points="79.499,23.409 85.171,17.723 85.171,20.942 79.499,26.629 "/>
<polygon fill="#EAAC1F" points="78.882,23.409 73.211,17.723 73.211,20.942 78.882,26.629 "/>
</svg>
